<svg width="40" height="40" viewBox="0 0 40 40" fill="none" xmlns="http://www.w3.org/2000/svg">
<mask id="mask0_19_84" style="mask-type:luminance" maskUnits="userSpaceOnUse" x="0" y="0" width="40" height="40">
<path d="M0 -1.43051e-06H40V40H0V-1.43051e-06Z" fill="white"/>
</mask>
<g mask="url(#mask0_19_84)">
<path d="M16.8415 10.5265L23.1573 4.21066C23.1573 4.21066 29.4731 -2.10513 35.7889 4.21066C42.1047 10.5265 35.7889 16.8422 35.7889 16.8422L27.3678 25.2633C27.3678 25.2633 21.052 31.5791 14.7363 25.2633C13.552 24.0791 12.8184 22.5054 12.8184 22.5054L16.3478 18.9812C16.3478 18.9812 16.2057 20.417 17.8941 22.1054C17.8941 22.1054 21.052 25.2633 24.2099 22.1054L32.631 13.6843C32.631 13.6843 35.7889 10.5265 32.631 7.36856C29.4731 4.21066 26.3152 7.36856 26.3152 7.36856L22.3899 11.2938C22.3899 11.2938 20.4384 9.69277 16.4468 10.9212L16.8415 10.5265Z" fill="black"/>
<path d="M22.9946 29.4739L16.6788 35.7897C16.6788 35.7897 10.363 42.1055 4.04725 35.7897C-2.26854 29.4739 4.04725 23.1581 4.04725 23.1581L12.4683 14.737C12.4683 14.737 18.7841 8.42124 25.0999 14.737C26.2841 15.9212 27.0178 17.4949 27.0178 17.4949L23.4883 21.0202C23.4883 21.0202 23.6304 19.5833 21.942 17.8949C21.942 17.8949 18.7841 14.737 15.6262 17.8949L7.20515 26.316C7.20515 26.316 4.04725 29.4739 7.20515 32.6318C10.363 35.7897 13.5209 32.6318 13.5209 32.6318L17.4462 28.7065C17.4462 28.7065 19.3978 30.3065 23.3894 29.0791L22.9946 29.4739Z" fill="black"/>
</g>
</svg>
