<svg xmlns="http://www.w3.org/2000/svg" viewBox="0 0 64 64">
  <rect x="10" y="16" width="20" height="28" rx="3" fill="#b7d46a" stroke="#2b2b2b" stroke-width="2"/>
  <rect x="10" y="16" width="20" height="7" rx="3" fill="#d3ea93" stroke="#2b2b2b" stroke-width="2"/>
  <circle cx="15" cy="20" r="1.5" fill="#2b2b2b"/>
  <circle cx="20" cy="20" r="1.5" fill="#2b2b2b"/>
  <rect x="14" y="27" width="12" height="3" rx="1.5" fill="#2b2b2b" opacity="0.25"/>
  <rect x="14" y="33" width="12" height="3" rx="1.5" fill="#2b2b2b" opacity="0.25"/>

  <circle cx="40" cy="36" r="10" fill="#7fd0e6" stroke="#2b2b2b" stroke-width="2"/>
  <path d="M30 36h20" stroke="#2b2b2b" stroke-width="2" opacity="0.35"/>
  <path d="M40 26c3 3 3 17 0 20" fill="none" stroke="#2b2b2b" stroke-width="2" opacity="0.35"/>
  <path d="M40 26c-3 3-3 17 0 20" fill="none" stroke="#2b2b2b" stroke-width="2" opacity="0.35"/>

  <path d="M44 18h10l-3-3" fill="none" stroke="#2b2b2b" stroke-width="2.5" stroke-linecap="round" stroke-linejoin="round"/>
  <path d="M54 18l-3 3" fill="none" stroke="#2b2b2b" stroke-width="2.5" stroke-linecap="round" stroke-linejoin="round"/>
  <path d="M54 30h-10l3-3" fill="none" stroke="#2b2b2b" stroke-width="2.5" stroke-linecap="round" stroke-linejoin="round"/>
  <path d="M44 30l3 3" fill="none" stroke="#2b2b2b" stroke-width="2.5" stroke-linecap="round" stroke-linejoin="round"/>

  <path
    d="M28 52c-3 0-5-1.7-5-4 0-2 1.6-3.6 3.8-3.9 1-2.3 3.1-3.8 5.6-3.8 3 0 5.4 2 6 4.8.3-.1.7-.1 1.1-.1 2.3 0 4.2 1.6 4.2 3.8S41.8 52 39.3 52H28z"
    fill="#ffffff"
    stroke="#2b2b2b"
    stroke-width="2"
  />
</svg>