<svg xmlns="http://www.w3.org/2000/svg" viewBox="0 0 64 64">

  <ellipse cx="32" cy="55" rx="18" ry="4" fill="#dfeaed" />


  <rect x="14" y="10" width="36" height="28" rx="4" fill="#ffffff" stroke="#2f3a40" stroke-width="2" />

  <rect x="14" y="10" width="36" height="7" rx="4" fill="#cfe7f1" stroke="#2f3a40" stroke-width="2" />
  <circle cx="19" cy="13.5" r="1.3" fill="#2f3a40" opacity="0.35" />
  <circle cx="23" cy="13.5" r="1.3" fill="#2f3a40" opacity="0.35" />


  <rect x="18" y="20" width="28" height="14" rx="2" fill="#eaf6fb" />

  <path d="M20 23h10M20 26h7M20 29h12" stroke="#2f3a40" stroke-width="1.6" opacity="0.25"
    stroke-linecap="round" />


  <path d="M27 24l-7 3 7 3" fill="none" stroke="#2f3a40" stroke-width="3" stroke-linecap="round" stroke-linejoin="round" />

  <path d="M37 24l7 3-7 3" fill="none" stroke="#2f3a40" stroke-width="3" stroke-linecap="round" stroke-linejoin="round" />

  <path d="M33 23l-2 10" fill="none" stroke="#2f3a40" stroke-width="3" stroke-linecap="round" />


  <rect x="29" y="38" width="6" height="6" rx="1" fill="#2f3a40" />
  <rect x="22" y="44" width="20" height="5" rx="2" fill="#2f3a40" />
</svg>